<svg width="680" height="674" viewBox="0 0 680 674" fill="none" xmlns="http://www.w3.org/2000/svg">
<path d="M563.555 657.486C560.145 652.389 560.653 641.639 558.037 637.844C555.433 634.075 543.9 631.037 539.945 634.272C536.424 637.161 542.859 647.888 539.933 652.414C538.656 654.386 511.921 667.082 511.562 669.787C510.954 674.3 558.124 674.572 565.998 670.258C570.115 668.012 567.287 663.066 563.555 657.486Z" fill="#FF2626" fill-opacity="0.8"/>
<path d="M477.522 657.486C474.112 652.389 474.621 641.639 472.004 637.844C469.4 634.075 457.868 631.037 453.913 634.272C450.391 637.161 456.827 647.888 453.9 652.414C452.623 654.386 425.889 667.082 425.529 669.787C424.922 674.3 472.091 674.572 479.965 670.258C484.094 668.012 481.267 663.066 477.522 657.486Z" fill="#FF2626" fill-opacity="0.8"/>
<path d="M485.438 234.264C473.332 242.282 388.895 232.558 364.197 165.458C339.627 98.7135 426.652 46.9688 436.609 47.524C457.477 48.7036 389.952 119.841 403.216 143.231C415.903 165.607 485.994 166.232 499.965 184.528C517.468 207.471 496.045 227.237 485.438 234.264Z" fill="#FF8B70"/>
<path d="M506.576 201.538C506.399 196.195 504.492 190.463 499.953 184.525C485.985 166.216 415.952 165.563 403.204 143.228C390.25 120.491 453.643 59.9909 436.609 47.5241C436.046 47.1167 435.376 46.781 434.634 46.526C428.619 57.2279 418.057 74.3868 406.052 86.4074C387.391 105.091 389.86 106.928 389.461 132.481C389.047 158.044 384.974 165.364 403.806 175.791C422.639 186.218 453.88 198.543 453.88 198.543L506.576 201.538Z" fill="#BB523E"/>
<path d="M407.494 215.87L412.386 170.128C412.386 170.128 394.855 183.766 383.005 197.062C390.865 205.879 397.489 211.353 407.494 215.87Z" fill="#FF2626" fill-opacity="0.8"/>
<path d="M485.438 234.264C496.045 227.237 517.468 207.471 499.968 184.515C489.7 171.049 449.09 167.143 423.268 157.125C418.226 160.128 412.436 165.108 409.754 173C404.483 188.512 396.896 195.013 393.55 202.852C392.469 205.393 392.391 206.372 392.391 206.372C430.602 239.549 477.614 239.456 485.438 234.264Z" fill="#B4D3DB"/>
<path d="M505.958 208.019C498.871 194.249 471.192 206.3 447.855 205.081C429.247 204.114 410.684 195.117 401.463 189.966C398.277 194.907 395.31 198.708 393.534 202.862C392.454 205.404 392.376 206.382 392.376 206.382C426.98 237.367 477.618 239.442 485.438 234.264C492.155 229.824 503.204 220.25 505.958 208.019Z" fill="#99B8BE"/>
<path d="M452.893 234.659L453.251 190.964C453.251 190.964 418.639 199.503 410.868 219.662C417.989 224.163 439.355 234.168 452.893 234.659Z" fill="#FF2626" fill-opacity="0.8"/>
<path d="M534.973 492.218C537.811 521.706 553.275 541.372 561.496 583.408C573.413 644.342 567.658 653.133 545.848 653.133C509.837 653.133 479.036 521.966 479.036 494.339C479.036 466.712 507.208 329.196 507.208 329.196L564.099 323.988C564.099 323.988 569.197 334.366 566.988 358.385" fill="#C45454" fill-opacity="0.8"/>
<path d="M536.697 495.258C539.623 517.713 553.263 541.385 561.484 583.408C573.401 644.34 567.647 653.132 545.835 653.132C522.213 653.132 500.848 596.727 488.932 550.102C492.205 539.103 499.608 533.499 505.015 529.817C515.901 522.389 507.371 498.902 507.395 488.573C507.433 472.219 517.601 448.832 525.09 425.544C532.58 402.258 531.898 342.527 531.898 342.527C531.898 342.527 546.133 340.059 568.465 341.151C570.771 346.742 567.361 362.677 564.745 371.703C564.745 371.692 535.035 482.472 536.697 495.258Z" fill="#FF2626" fill-opacity="0.8"/>
<path d="M552.643 641.167C551.6 641.167 550.707 640.373 550.608 639.332C550.559 638.823 545.698 587.401 531.427 543.592C520.105 508.835 521.58 474.523 535.804 441.602C544.757 420.881 550.547 359.142 550.608 358.522C550.707 357.406 551.676 356.6 552.828 356.687C553.957 356.786 554.776 357.778 554.677 358.881C554.44 361.448 548.774 421.872 539.56 443.189C525.735 475.181 524.297 508.537 535.308 542.339C549.728 586.581 554.627 638.439 554.677 638.96C554.776 640.076 553.957 641.056 552.828 641.155C552.767 641.167 552.705 641.167 552.643 641.167Z" fill="#99B8BE"/>
<path d="M454.26 319.412C454.26 319.412 421.326 394.134 409.335 488.56C402.069 545.749 427.252 652.836 464.848 653.132C516.06 653.53 451.656 530.051 456.405 488.56C461.105 447.529 529.849 338.334 508.287 323.864C486.723 309.393 454.26 319.412 454.26 319.412Z" fill="#C45454" fill-opacity="0.8"/>
<path d="M506.328 371.827L506.303 323.405C505.522 323.231 504.74 323.07 503.947 322.909C497.152 334.007 472.5 374.492 469.748 382.33C466.561 391.431 432.882 457.92 430.154 475.466C427.439 493.011 442.889 547.87 430.154 568.615C426.137 575.15 423.161 580.482 418.746 586.88C429.237 624.688 444.762 652.971 464.837 653.132C516.049 653.53 451.644 530.051 456.393 488.56C459.418 462.26 486.45 409.275 506.328 371.827Z" fill="#FF2626" fill-opacity="0.8"/>
<path d="M471.682 641.167C470.641 641.167 469.748 640.373 469.649 639.332C469.599 638.823 464.738 587.401 450.466 543.592C439.145 508.835 440.608 474.523 454.843 441.602C463.945 420.559 486.847 371.505 487.083 371.021C487.554 370.004 488.769 369.57 489.799 370.041C490.815 370.511 491.262 371.715 490.791 372.732C490.567 373.228 467.677 422.221 458.6 443.213C444.762 475.206 443.336 508.562 454.347 542.364C468.768 586.607 473.666 638.464 473.716 638.985C473.815 640.101 472.997 641.081 471.868 641.18C471.806 641.167 471.744 641.167 471.682 641.167Z" fill="#99B8BE"/>
<path d="M555.811 379.516C559.785 378.314 565.473 360.95 569.166 345.658C575.342 320.098 578.093 298.712 579.892 276.177C581.46 256.596 596.642 215.83 556.929 188.963C513.061 159.295 449.898 170.565 444.168 204.51C438.57 237.631 462.77 265.749 460.607 296.673C458.857 321.711 423.853 354.241 448.62 369.796C471.196 383.99 524.481 389.008 555.811 379.516Z" fill="#B4D3DB"/>
<path d="M491.768 382.744C516.222 385.548 522.245 386.506 549.551 380.323C567.511 376.259 569.113 355.314 571.196 343.302C574.591 323.725 577.375 310.035 579.772 285.889C582.261 260.793 596.655 215.819 556.93 188.95C545.299 181.077 531.657 176.705 517.785 175.113C519.629 180.202 521.569 189.251 522.89 205.38C526.203 245.822 533.272 325.15 522.084 343.646C511.838 360.593 493.629 366.976 491.768 382.744Z" fill="#99B8BE"/>
<path d="M498.131 158.252L510.992 188.524C511.346 192.887 488.554 206.682 481.198 201.655C479.039 200.187 479.31 195.954 480.891 191.292L490.481 165.784L498.131 158.252Z" fill="#FF8B70"/>
<mask id="mask0_1_51" style="mask-type:alpha" maskUnits="userSpaceOnUse" x="479" y="158" width="32" height="45">
<path d="M498.131 158.252L510.992 188.524C511.346 192.887 488.554 206.682 481.198 201.655C479.039 200.187 479.31 195.954 480.891 191.292L490.481 165.784L498.131 158.252Z" fill="#FF8B70"/>
</mask>
<g mask="url(#mask0_1_51)">
<path d="M488.589 169.714C493.523 169.464 500.254 169.031 500.254 169.031C500.254 169.031 498.906 176.604 491.48 181.525C487.555 184.127 483.219 185.065 479.228 184.863L488.589 169.714Z" fill="#FF2626" fill-opacity="0.8"/>
</g>
<path d="M474.831 149.902C474.235 148.971 474.696 146.591 474.804 143.191C474.925 139.165 474.996 133.996 478.905 132.263C490.898 126.929 499.184 135.211 502.926 140.342C504.331 142.275 504.883 144.658 504.708 147.025C504.635 148.058 504.385 150.033 504.576 151.086C505.507 156.115 504.808 158.803 503.719 160.988C502.844 162.756 499.395 165.64 497.483 165.112C491.596 163.513 479.458 157.133 474.831 149.902Z" fill="#D2D2D2"/>
<path d="M497.078 147.126L500.126 165.837C501.224 171.771 497.383 177.491 491.441 178.715C486.695 179.696 483.672 179.523 477.733 178.449C472.786 177.553 470.496 172.659 470.858 166.169C471.328 157.755 474.174 150.149 475.916 146.162C479.905 137.079 493.145 135.844 497.078 147.126Z" fill="#FF8B70"/>
<path d="M484.248 160.184C484.248 160.184 480.074 160.947 474.282 159.899C474.282 159.899 473.912 163.653 476.142 165.101C478.375 166.538 482.621 164.6 484.248 160.184Z" fill="white"/>
<path d="M476.553 171.916C482.195 171.137 485.957 179.767 496.312 172.412C498.247 171.046 499.424 167.536 500.025 165.45L500.126 165.837C501.224 171.771 497.383 177.491 491.441 178.715C486.695 179.696 483.672 179.523 477.733 178.449C474.708 177.904 472.687 175.87 471.641 172.891C472.639 173.095 474.834 172.146 476.553 171.916Z" fill="#BB523E"/>
<path d="M494.528 155.159C494.833 154.073 494.956 152.95 495.028 151.826C495.145 149.675 495.828 146.52 498.949 148.285C503.486 150.844 502.961 161.272 497.573 161.823C493.566 162.207 493.765 157.894 494.528 155.159Z" fill="#BB523E"/>
<path d="M478.349 156.912C478.349 156.912 473.958 154.714 471.427 156.626C468.895 158.538 466.816 157.245 467.428 158.36C468.039 159.476 473.727 162.1 475.975 161.242C478.222 160.384 477.826 160.521 477.826 160.521C477.826 160.521 482.289 162.545 486.126 162.937C489.963 163.329 492.421 159.163 490.859 158.858C489.298 158.553 481.632 155.164 478.349 156.912Z" fill="#D2D2D2"/>
<path d="M474.46 142.559C474.523 141.946 475.045 141.484 475.656 141.507C480.691 141.644 501.534 142.407 504.575 145.23C505.755 146.331 504.561 151.095 504.561 151.095L475.698 147.927C474.725 147.819 474.01 146.945 474.103 145.981L474.46 142.559Z" fill="#FF2626" fill-opacity="0.8"/>
<mask id="mask1_1_51" style="mask-type:alpha" maskUnits="userSpaceOnUse" x="439" y="171" width="146" height="214">
<path d="M555.811 379.516C559.785 378.314 565.473 360.95 569.166 345.658C575.342 320.098 578.093 298.712 579.892 276.177C581.46 256.596 596.642 215.83 556.929 188.963C513.061 159.295 449.898 170.565 444.168 204.51C438.57 237.631 462.77 265.749 460.607 296.673C458.857 321.711 423.853 354.241 448.62 369.796C471.196 383.99 524.481 389.008 555.811 379.516Z" fill="#B4D3DB"/>
<path d="M491.768 382.744C516.222 385.548 522.245 386.506 549.551 380.323C567.511 376.259 569.113 355.314 571.196 343.302C574.591 323.725 577.375 310.035 579.772 285.889C582.261 260.793 596.655 215.819 556.93 188.95C545.299 181.077 531.657 176.705 517.785 175.113C519.629 180.202 521.569 189.251 522.89 205.38C526.203 245.822 533.272 325.15 522.084 343.646C511.838 360.593 493.629 366.976 491.768 382.744Z" fill="#99B8BE"/>
</mask>
<g mask="url(#mask1_1_51)">
<path d="M589.309 250.353C587.528 239.077 587.332 224.913 580.735 211.496L533.084 222.628C533.084 222.628 555.81 255.349 589.309 250.353Z" fill="#FF2626" fill-opacity="0.8"/>
</g>
<path d="M554.041 234.683C567.294 238.715 623.188 208.686 660.737 153.042C684.099 118.425 637.034 18.4398 618.484 27.9491C599.934 37.446 641.157 99.9785 631.124 125.564C622.172 148.392 552.045 174.587 535.746 189.685C515.306 208.622 542.562 231.177 554.041 234.683Z" fill="#FF8B70"/>
<mask id="mask2_1_51" style="mask-type:alpha" maskUnits="userSpaceOnUse" x="527" y="27" width="141" height="211">
<path d="M551.418 236.673C564.672 240.705 623.187 208.686 660.737 153.042C684.099 118.425 637.034 18.4398 618.484 27.9491C599.934 37.446 641.157 99.9785 631.124 125.564C622.172 148.392 552.045 174.587 535.746 189.685C515.306 208.622 539.939 233.167 551.418 236.673Z" fill="#FF8B70"/>
</mask>
<g mask="url(#mask2_1_51)">
<path d="M577.515 252.326C590.768 256.358 649.284 224.339 686.834 168.696C710.195 134.078 663.089 34.0738 644.568 43.591C626.075 53.1381 667.251 115.619 657.209 141.225C648.258 164.059 578.179 190.256 561.857 205.346C541.41 224.269 566.036 248.82 577.515 252.326Z" fill="#BB523E"/>
</g>
<mask id="mask3_1_51" style="mask-type:alpha" maskUnits="userSpaceOnUse" x="527" y="27" width="141" height="211">
<path d="M551.418 236.673C564.672 240.705 623.187 208.686 660.737 153.042C684.099 118.425 637.034 18.4398 618.484 27.9491C599.934 37.446 641.157 99.9785 631.124 125.564C622.172 148.392 552.045 174.587 535.746 189.685C515.306 208.622 539.939 233.167 551.418 236.673Z" fill="#FF8B70"/>
</mask>
<g mask="url(#mask3_1_51)">
<path d="M607.312 211.019C613.702 206.723 613.084 206.6 618.688 201.114C613.446 190.204 591.992 181.035 591.992 181.035C591.992 181.035 584.634 179.494 585.49 181.169C591.035 192.023 607.312 211.019 607.312 211.019Z" fill="#FF2626" fill-opacity="0.8"/>
</g>
<path d="M597.608 186.65C591.963 174.146 580.7 166.45 574.041 163.951C553.579 174.275 534.445 186.248 529.785 196.16C517.919 221.371 549.586 235.592 561.513 236.894C577.491 238.639 590.362 225.33 610.711 210.409C606.206 203.617 602.731 197.997 597.608 186.65Z" fill="#B4D3DB"/>
<mask id="mask4_1_51" style="mask-type:alpha" maskUnits="userSpaceOnUse" x="527" y="163" width="84" height="75">
<path d="M597.608 186.65C591.963 174.147 580.7 166.45 574.041 163.952C553.579 174.275 534.445 186.248 529.785 196.161C517.919 221.371 549.586 235.592 561.513 236.894C577.491 238.639 590.362 225.33 610.711 210.409C606.206 203.617 602.731 197.997 597.608 186.65Z" fill="#B4D3DB"/>
</mask>
<g mask="url(#mask4_1_51)">
<path d="M586.082 196.806C575.472 201.698 573.888 201.615 553.852 211.194C542.342 216.703 533.862 216.254 528.713 214.887C534.538 227.897 552.892 238.463 561.131 238.133C567.156 237.902 580.933 244.614 612.251 212.16C608.352 204.75 603.459 198.977 598.94 187.689C594.331 190.941 589.427 195.26 586.082 196.806Z" fill="#99B8BE"/>
</g>
<path d="M475.195 40.4593L464.49 33.8362C462.194 32.4155 459.306 32.4585 456.926 33.9611L446.02 40.8627C443.616 42.3825 442.089 45.1599 442.024 48.1266L441.727 61.5923C441.665 64.5287 443.041 67.2091 445.348 68.6363L456.053 75.2595C458.349 76.6801 461.237 76.6372 463.617 75.1346L474.523 68.2329C476.927 66.7131 478.455 63.9358 478.519 60.969L478.805 47.4968C478.867 44.5604 477.492 41.88 475.195 40.4593Z" fill="#FF2626" fill-opacity="0.8"/>
<path d="M450.283 59.6632L424.003 43.4046L433.568 26.0164L459.859 42.2816C462.027 43.6233 462.704 46.667 461.372 49.0883L456.626 57.7171C455.29 60.1199 452.452 61.005 450.283 59.6632Z" fill="#C45454" fill-opacity="0.8"/>
<path d="M436.743 16.6698L426.037 10.0466C423.741 8.62598 420.853 8.66892 418.473 10.1715L407.578 17.0798C405.174 18.5996 403.646 21.3769 403.582 24.3437L403.285 37.8093C403.223 40.7457 404.599 43.4261 406.905 44.8533L417.611 51.4765C419.907 52.8972 422.795 52.8542 425.175 51.3516L436.081 44.4499C438.485 42.9302 440.012 40.1528 440.077 37.1861L440.374 23.7204C440.425 20.7774 439.05 18.097 436.743 16.6698Z" fill="#C45454" fill-opacity="0.8"/>
<path d="M587.99 9.51027L600.365 7.83922C603.018 7.48099 605.68 8.56048 607.33 10.6776L614.886 20.3931C616.551 22.5331 616.939 25.4086 615.901 27.9137L611.193 39.2852C610.164 41.764 607.897 43.509 605.23 43.8691L592.855 45.5401C590.2 45.8985 587.539 44.8188 585.89 42.7018L578.334 32.9862C576.668 30.8464 576.279 27.9709 577.319 25.4657L582.027 14.0942C583.068 11.6137 585.335 9.86867 587.99 9.51027Z" fill="#FF2626" fill-opacity="0.8"/>
<path d="M603.976 34.579L634.365 30.4756L631.934 12.473L601.545 16.5763C599.038 16.9148 597.284 19.2162 597.623 21.723L598.829 30.6568C599.166 33.1513 601.469 34.9175 603.976 34.579Z" fill="#C45454" fill-opacity="0.8"/>
<path d="M632.438 3.50856L644.813 1.83768C647.466 1.47945 650.128 2.55894 651.778 4.67603L659.333 14.3916C660.999 16.5316 661.387 19.4071 660.349 21.9121L655.64 33.2836C654.611 35.7624 652.344 37.5075 649.678 37.8675L637.303 39.5384C634.649 39.8968 631.988 38.8171 630.338 36.7L622.783 26.9845C621.117 24.8445 620.729 21.969 621.767 19.4639L626.476 8.09245C627.505 5.61365 629.772 3.86862 632.438 3.50856Z" fill="#C45454" fill-opacity="0.8"/>
<path d="M615.321 44.3428C615.321 44.3428 598.502 30.5319 602.549 24.9048C606.597 19.29 611.228 19.3385 614.123 17.8204C617.017 16.3023 619.937 20.781 617.156 22.7972C614.375 24.8133 618.058 28.2199 621.56 28.9245C625.051 29.6429 630.852 34.3676 627.88 38.3206C624.908 42.2736 618.645 46.1075 615.321 44.3428Z" fill="#FF8B70"/>
<path d="M625.413 11.7471C625.413 11.7471 619.467 8.34082 613.846 9.05576C608.223 9.77086 598.318 16.8931 604.585 17.6334C610.854 18.3611 613.503 15.6118 614.195 15.6487C614.889 15.6855 620.092 17.7862 621.949 16.6626C623.818 15.5249 625.413 11.7471 625.413 11.7471Z" fill="#FF8B70"/>
<path d="M435.826 65.068C435.826 65.068 456.967 57.8485 455.587 50.4882C454.2 43.1397 449.934 41.3115 447.908 38.595C445.883 35.8785 441.351 39.2472 443.066 42.424C444.781 45.6008 439.993 47.5702 436.49 46.8666C432.992 46.1814 425.716 48.6321 426.804 53.8551C427.886 59.09 432.047 65.5139 435.826 65.068Z" fill="#FF8B70"/>
<path d="M440.071 27.8446C440.071 27.8446 446.934 26.7927 451.792 29.7985C456.651 32.8042 462.785 44.06 456.73 42.2708C450.675 40.4816 449.39 36.6005 448.74 36.3575C448.09 36.1144 442.448 36.1395 441.21 34.2445C439.98 32.3376 440.071 27.8446 440.071 27.8446Z" fill="#FF8B70"/>
<path d="M57.9779 217.971C63.2174 192.605 95.7158 192.333 123.195 164.088C150.738 135.795 156.273 78.0282 166.283 75.2723C176.292 72.5288 168.708 130.382 145.141 169.86C121.585 209.338 82.6737 229.3 74.6977 231.411C65.4507 233.846 56.6721 224.26 57.9779 217.971Z" fill="#BB523E"/>
<path d="M166.93 42.759L161.049 49.307C159.311 51.2361 158.755 53.9512 159.572 56.4146L162.348 64.737C163.169 67.1758 165.212 68.9921 167.731 69.5213L176.481 71.3335C178.99 71.8489 181.594 71.0007 183.304 69.0928L189.186 62.5449C190.923 60.6156 191.48 57.9007 190.663 55.4373L187.888 47.1149C187.067 44.6761 185.023 42.8598 182.504 42.3305L173.753 40.5183C171.246 39.9906 168.64 40.8511 166.93 42.759Z" fill="#FF2626" fill-opacity="0.8"/>
<path d="M177.31 63.4749L160.167 82.5734L149.418 73.0697L166.573 53.9728C167.633 52.7901 169.463 52.6878 170.658 53.7508L177.094 59.4412C178.265 60.4884 178.372 62.2924 177.31 63.4749Z" fill="#C45454" fill-opacity="0.8"/>
<path d="M162.418 79.3498C162.418 79.3498 158.441 71.3025 159.824 66.8225C161.25 62.2107 162.866 61.2785 164.193 61.8339C166.218 62.6716 164.469 66.5264 165.466 68.6011C166.459 70.6754 171.191 73.3441 170.34 77.0329C169.479 80.7077 163.528 83.1668 162.418 79.3498Z" fill="#BB523E"/>
<path d="M153.809 71.6004C153.809 71.6004 151.589 67.2075 153.474 64.9354C155.36 62.6634 157.223 61.8397 157.515 60.3277C157.82 58.8174 160.854 56.7512 163.78 57.4983C166.695 58.2439 163.651 61.5853 162.417 62.8444C161.183 64.1036 159.535 65.6445 159.182 67.1359C158.814 68.6502 156.006 72.7492 153.809 71.6004Z" fill="#BB523E"/>
<path d="M142.669 69.777L136.789 76.325C135.05 78.2541 134.494 80.9693 135.312 83.4326L138.087 91.755C138.908 94.1938 140.952 96.0101 143.47 96.5393L152.22 98.3515C154.73 98.8669 157.333 98.0187 159.044 96.1108L164.926 89.563C166.663 87.6337 167.22 84.9187 166.403 82.4553L163.627 74.1329C162.806 71.6941 160.763 69.8779 158.243 69.3485L149.493 67.5363C146.972 67.0194 144.378 67.8689 142.669 69.777Z" fill="#C45454" fill-opacity="0.8"/>
<path d="M108.608 635.019C112.08 630.679 113.22 625.782 113.791 621.738L132.044 615.564C132.044 615.564 128.634 627.467 131.176 631.596C132.279 633.394 156.943 645.794 157.154 648.214C157.513 652.23 112.91 650.37 105.681 646.216C101.899 644.035 104.801 639.794 108.608 635.019Z" fill="#BB523E"/>
<path d="M157.154 648.214C157.005 646.489 144.357 639.658 136.756 635.243C134.437 638.963 129.823 640.922 125.273 640.116L120.053 639.198C117.348 638.715 114.943 637.314 113.307 635.256L110.666 631.919C110.083 632.974 109.426 634.016 108.62 635.019C104.813 639.78 101.912 644.035 105.694 646.205C112.91 650.37 157.513 652.23 157.154 648.214Z" fill="#F85555"/>
<path d="M45.5785 353.254C45.5785 353.254 27.7597 402.184 42.3793 427.567C56.9989 452.937 115.924 485.115 115.924 485.115C115.924 485.115 89.8837 597.769 97.2245 612.886C104.565 628 120.673 633.27 132.552 623.76C144.431 614.249 170.422 506.839 164.271 476.485C158.121 446.128 130.146 390.393 123.562 369.486C117.883 351.42 45.5785 353.254 45.5785 353.254Z" fill="#FF2626" fill-opacity="0.8"/>
<path d="M39.2552 634.755C42.779 630.457 45.5924 620.246 46.2113 616.21L62.9228 615.583C62.9228 615.583 59.3703 627.444 61.8626 631.604C62.9446 633.415 87.4577 646.11 87.6395 648.531C87.9509 652.552 43.3736 650.157 36.1948 645.916C32.4268 643.69 35.3914 639.484 39.2552 634.755Z" fill="#FF8B70"/>
<path d="M87.6271 648.531C87.499 646.804 74.9338 639.822 67.3861 635.317C65.0229 639.009 60.3869 640.913 55.8461 640.052L50.6371 639.071C47.9399 638.556 45.5512 637.126 43.9392 635.048L41.3382 631.68C40.7428 632.728 40.0732 633.762 39.2552 634.755C35.3916 639.471 32.4392 643.69 36.1949 645.905C43.3737 650.157 87.9385 652.551 87.6271 648.531Z" fill="#F85555"/>
<path d="M6.41931 372.611C6.41931 372.611 7.25011 408.175 20.4313 434.314C37.7913 468.748 72.1784 472.924 72.352 486.055C72.5008 496.832 24.9468 597.804 32.2752 612.921C39.616 628.035 55.7236 633.305 67.6028 623.795C79.482 614.284 131.24 520.168 125.077 489.813C118.926 459.457 91.7809 376.394 74.5697 368.383C57.3585 360.372 6.41931 372.611 6.41931 372.611Z" fill="#C45454" fill-opacity="0.8"/>
<path d="M95.563 384.243C96.493 381.168 96.7038 378.649 96.3317 376.617C94.2237 373.888 92.1405 371.756 90.1069 370.293C72.6353 365.197 31.4053 384.764 8.67615 395.725C10.3997 404.157 12.0117 413.989 15.9549 423.886C31.6285 423.86 84.3905 421.195 95.563 384.243Z" fill="#FF2626" fill-opacity="0.8"/>
<mask id="mask5_1_51" style="mask-type:alpha" maskUnits="userSpaceOnUse" x="6" y="365" width="120" height="264">
<path d="M6.41931 372.611C6.41931 372.611 7.25011 408.175 20.4313 434.314C37.7913 468.748 72.1784 472.924 72.352 486.055C72.5008 496.832 24.9468 597.804 32.2752 612.921C39.616 628.035 55.7236 633.305 67.6028 623.795C79.482 614.284 131.24 520.168 125.077 489.813C118.926 459.457 91.7809 376.394 74.5697 368.383C57.3585 360.372 6.41931 372.611 6.41931 372.611Z" fill="#604BD3"/>
<path d="M95.563 384.243C96.493 381.168 96.7038 378.649 96.3317 376.617C94.2237 373.888 92.1405 371.756 90.1069 370.293C72.6353 365.197 31.4053 384.764 8.67615 395.725C10.3997 404.157 12.0117 413.989 15.9549 423.886C31.6285 423.86 84.3905 421.195 95.563 384.243Z" fill="#301E69"/>
</mask>
<g mask="url(#mask5_1_51)">
<path d="M76.4205 564.848C71.3117 570.913 44.7509 575.578 29.9329 578.515C24.5513 594.834 23.5717 608.09 25.8905 612.851C33.2313 627.966 59.6929 633.422 71.4481 623.75C80.3885 616.386 119.585 553.963 129.493 514.754C134.08 496.551 85.5717 553.973 76.4205 564.848Z" fill="#FF2626" fill-opacity="0.8"/>
</g>
<path d="M124.628 370.389C123.091 365.899 102.511 332.035 101.086 328.063C94.3486 309.313 96.4753 286.35 97.5326 273.363C98.5802 260.486 104.294 242.163 95.7177 230.851C90.6027 224.105 77.0397 213.286 69.8631 211.479C47.1358 205.787 30.8222 221.309 26.2574 227.349C-9.0468 274.111 7.68802 399.238 9.83705 400.376C34.5566 413.438 74.7212 387.777 124.628 370.389Z" fill="#B4D3DB"/>
<path d="M101.087 328.074C94.3489 309.324 96.1937 282.971 97.5329 273.374C99.3268 260.579 104.294 242.174 95.718 230.862C90.603 224.116 77.04 213.299 69.8634 211.491C66.8056 210.722 63.8924 210.286 61.1086 210.069C63.0788 213.518 65.2003 217.572 67.4533 222.428C78.024 245.227 73.475 267.541 60.7418 268.772C48.0084 269.991 77.5268 290.562 81.2804 336.252C82.927 356.293 82.9811 373.111 83.7319 386.489C99.8872 380.162 110.308 375.181 124.628 370.389C123.103 365.898 102.511 332.033 101.087 328.074Z" fill="#99B8BE"/>
<path d="M67.7994 170.893C67.7994 170.893 71.709 161.429 63.3385 159.648C54.9681 157.867 49.1148 162.453 51.2163 169.582C53.3167 176.698 64.8124 173.883 67.7994 170.893Z" fill="#D2D2D2"/>
<path d="M84.9907 183.592C84.9907 183.592 90.1196 175.53 85.7105 170.676C81.3014 165.822 77.4339 163.646 66.7509 165.886C56.0679 168.125 50.3906 175.919 50.0047 183.739C49.6187 191.558 56.3426 204.11 65.2372 201.868C74.1449 199.637 84.9907 183.592 84.9907 183.592Z" fill="#D2D2D2"/>
<path d="M84.9907 183.592C84.9907 183.592 88.31 178.359 87.3059 173.782C85.0722 173.579 82.658 173.486 80.5552 173.177C75.0223 172.357 72.5142 175.361 64.7122 179.444C59.5552 182.144 53.8747 181.121 50.592 180.118C50.2715 181.315 50.0762 182.53 50.0178 183.75C49.6319 191.57 56.3557 204.122 65.2503 201.88C74.1449 199.637 84.9907 183.592 84.9907 183.592Z" fill="#B5B5B5"/>
<path d="M73.4015 192.959L72.54 211.388C72.3292 215.424 85.6073 230.292 73.5624 233.28C69.0748 234.395 56.3248 218.807 58.3454 214.726L64.4334 193.961L73.4015 192.959Z" fill="#FF8B70"/>
<mask id="mask6_1_51" style="mask-type:alpha" maskUnits="userSpaceOnUse" x="58" y="192" width="21" height="42">
<path d="M73.4015 192.959L72.54 211.388C72.3292 215.424 85.6073 230.292 73.5624 233.28C69.0748 234.395 56.3248 218.807 58.3454 214.726L64.4334 193.961L73.4015 192.959Z" fill="#FF8B70"/>
</mask>
<g mask="url(#mask6_1_51)">
<path d="M80.4745 203.626L81.6003 214.728C81.5946 214.853 72.7748 211.545 72.7952 211.693C70.0379 210.302 66.7752 208.056 67.0233 205.286C67.2121 203.028 77.5899 203.099 80.4745 203.626Z" fill="#FF2626" fill-opacity="0.8"/>
</g>
<path d="M61.9819 189.389C59.2071 196.431 62.2968 204.684 69.3325 207.583C75.8342 210.25 83.216 207.816 86.1111 199.551C88.6712 192.211 84.7304 184.525 83.5428 180.69C81.7558 174.95 75.6508 175.266 69.2882 182.327C66.4766 185.459 61.9819 189.389 61.9819 189.389Z" fill="#FF8B70"/>
<path d="M62.4262 190.259C62.0623 189.497 61.8332 188.702 61.6399 187.88C61.2828 186.322 60.3813 184.111 58.3226 185.774C55.3361 188.195 57.7133 196.362 61.7348 196.096C64.7052 195.911 63.3241 192.173 62.4262 190.259Z" fill="#FF8B70"/>
<path d="M76.1952 196.435C76.1952 196.435 79.6811 196.83 84.5257 195.477C84.5257 195.477 84.5581 197.921 83.1166 199.054C81.3899 200.426 78.0163 200.273 76.1952 196.435Z" fill="white"/>
<path d="M70.832 204.758C73.589 205.454 78.7787 205.435 81.1833 204.2C83.3223 203.104 85.7179 199.858 86.2377 199.135C86.1956 199.273 86.1658 199.412 86.1229 199.538C83.2401 207.802 75.846 210.237 69.3443 207.57C65.0016 205.792 62.1755 201.971 61.2844 197.648C64.276 202.007 68.3396 204.135 70.832 204.758Z" fill="#BB523E"/>
<path d="M91.6622 190.795L86.2434 191.634C85.5293 191.747 84.8245 191.574 84.2427 191.146C83.6608 190.717 83.2801 190.105 83.1671 189.39L82.7336 186.645C82.5056 185.179 83.5121 183.809 84.9906 183.592L90.4094 182.754C91.8748 182.526 93.2578 183.532 93.4851 184.985L93.9062 187.732C94.0185 188.433 93.8461 189.15 93.4173 189.72C93.0581 190.199 92.5678 190.548 92.0049 190.703C91.8961 190.758 91.773 190.777 91.6622 190.795ZM84.5196 186.375L84.9532 189.12C84.9906 189.354 85.1134 189.559 85.3078 189.71C85.5015 189.848 85.7408 189.91 85.9747 189.873L91.3935 189.034C91.6274 188.997 91.8442 188.873 91.9828 188.68C92.1214 188.486 92.183 188.247 92.1456 188.013L91.7244 185.266C91.6482 184.774 91.1838 184.451 90.7029 184.514L85.2841 185.352C85.247 185.354 85.2105 185.369 85.174 185.383C84.7212 185.507 84.4461 185.931 84.5196 186.375Z" fill="#FF2626" fill-opacity="0.8"/>
<path d="M77.7824 192.934L69.7279 194.175C69.0138 194.288 68.309 194.115 67.7271 193.687C67.1453 193.259 66.7646 192.646 66.6516 191.932L66.218 189.186C65.9907 187.733 66.9966 186.35 68.4751 186.134L76.5296 184.893C77.9951 184.665 79.378 185.671 79.6053 187.124L80.0264 189.87C80.1387 190.572 79.9663 191.289 79.5375 191.859C79.1783 192.337 78.688 192.687 78.1251 192.841C78.0157 192.884 77.9056 192.915 77.7824 192.934ZM68.0041 188.916L68.4376 191.662C68.4751 191.896 68.5978 192.1 68.7922 192.251C68.986 192.39 69.2252 192.451 69.4592 192.414L77.5137 191.173C77.7476 191.135 77.9645 191.012 78.103 190.818C78.2416 190.624 78.3032 190.385 78.2658 190.151L77.8446 187.405C77.7684 186.912 77.304 186.589 76.8231 186.653L68.7686 187.894C68.7315 187.896 68.695 187.91 68.6585 187.924C68.2057 188.048 67.9299 188.46 68.0041 188.916Z" fill="#FF2626" fill-opacity="0.8"/>
<path d="M83.3754 188.647L84.3244 187.13C83.3095 186.502 80.7423 185.87 78.3595 187.973L79.5493 189.312C81.4567 187.608 83.183 188.533 83.3754 188.647Z" fill="#FF2626" fill-opacity="0.8"/>
<mask id="mask7_1_51" style="mask-type:alpha" maskUnits="userSpaceOnUse" x="4" y="210" width="121" height="194">
<path d="M124.628 370.389C123.091 365.899 102.511 332.035 101.086 328.063C94.3486 309.313 96.4753 286.35 97.5326 273.363C98.5802 260.486 104.294 242.163 95.7177 230.851C90.6027 224.105 77.0397 213.286 69.8631 211.48C47.1358 205.787 30.8222 221.309 26.2574 227.349C-9.0468 274.111 7.68802 399.238 9.83705 400.376C34.5566 413.438 74.7212 387.777 124.628 370.389Z" fill="#B4D3DB"/>
<path d="M101.087 328.074C94.3489 309.325 96.1937 282.971 97.5329 273.375C99.3268 260.579 104.294 242.174 95.718 230.862C90.603 224.116 77.04 213.299 69.8634 211.491C66.8056 210.723 63.8924 210.286 61.1086 210.069C63.0788 213.518 65.2003 217.572 67.4533 222.428C78.024 245.227 73.475 267.541 60.7418 268.772C48.0084 269.991 77.5268 290.562 81.2804 336.252C82.927 356.293 82.9811 373.111 83.7319 386.489C99.8872 380.163 110.308 375.182 124.628 370.389C123.103 365.898 102.511 332.033 101.087 328.074Z" fill="#99B8BE"/>
</mask>
<g mask="url(#mask7_1_51)">
<path d="M159.993 255.228L44.1151 251.692C44.1151 251.692 72.133 269.879 96.5185 272.656C110.585 274.874 135.689 278.513 135.859 277.574C136.632 273.411 159.35 259.108 159.993 255.228Z" fill="#FF2626" fill-opacity="0.8"/>
</g>
<path d="M35.6532 225.15C59.8525 215.447 103.729 236.2 129.856 239.872C190.035 248.331 226.29 223.845 229.871 238.77C233.007 251.874 184.216 263.757 138.026 266.146C91.8223 268.535 40.2321 252.301 34.0498 246.882C26.8572 240.586 29.6471 227.562 35.6532 225.15Z" fill="#FF8B70"/>
<path d="M138.012 266.133C177.523 264.094 218.91 255.101 228.1 244.35C225.347 244.885 222.14 246.911 220.846 247.106C217.673 247.57 187.918 252.129 172.974 252.609C158.043 253.089 130.065 256.943 107.106 252.41C84.1484 247.878 80.3178 243.813 54.0853 241.553C36.1965 240.021 31.4594 235.44 30.2545 232.685C29.0838 237.447 29.9117 243.27 34.0252 246.87C40.2199 252.289 91.8213 268.523 138.012 266.133Z" fill="#BB523E"/>
<path d="M254.924 234.34L245.987 234.578C243.423 234.646 241.079 236.072 239.848 238.325L235.636 246.029C234.394 248.307 234.467 251.071 235.828 253.28L240.444 260.749C241.792 262.934 244.208 264.234 246.773 264.166L255.71 263.929C258.276 263.861 260.62 262.434 261.85 260.181L266.062 252.478C267.304 250.199 267.231 247.435 265.87 245.226L261.255 237.757C259.894 235.573 257.49 234.272 254.924 234.34Z" fill="#FF2626" fill-opacity="0.8"/>
<path d="M246.073 256.035L220.972 256.701L220.593 242.434L245.694 241.767C247.677 241.715 249.332 243.283 249.384 245.267L249.572 252.345C249.625 254.328 248.056 255.982 246.073 256.035Z" fill="#C45454" fill-opacity="0.8"/>
<path d="M218.407 235.31L209.47 235.547C206.905 235.615 204.56 237.042 203.33 239.295L199.118 246.998C197.876 249.276 197.95 252.041 199.311 254.25L203.925 261.719C205.273 263.903 207.69 265.203 210.255 265.135L219.192 264.898C221.758 264.83 224.102 263.403 225.332 261.15L229.544 253.447C230.786 251.169 230.712 248.405 229.351 246.196L224.737 238.727C223.389 236.542 220.973 235.242 218.407 235.31Z" fill="#C45454" fill-opacity="0.8"/>
<path d="M218.578 233.971C218.578 233.971 237.512 232.401 242.51 237.521C246.101 241.208 247.104 249.838 245.445 253.15C243.786 256.451 236.794 258.481 233.992 257.886C231.189 257.292 230.182 256.339 230.182 256.339C230.182 256.339 235.616 249.388 234.146 246.789C232.679 244.189 228.236 242.021 228.236 242.021L218.578 233.971Z" fill="#FF8B70"/>
</svg>
